<svg width="260" height="150" viewBox="0 0 260 150" fill="none" xmlns="http://www.w3.org/2000/svg">
<g clip-path="url(#clip0_322_34)">
<g filter="url(#filter0_d_322_34)">
<rect width="260" height="150" rx="10" fill="#393A39"/>
</g>
</g>
<g clip-path="url(#clip1_322_34)">
<path d="M104.731 85.9053C111.394 99.6848 126.079 106.228 137.536 100.526C148.994 94.8247 163.25 70.7457 157.804 59.4823C152.359 48.2234 124.866 44.929 113.408 50.6309C101.95 56.3327 98.0676 72.1259 104.731 85.9053Z" fill="url(#paint0_linear_322_34)"/>
<g filter="url(#filter1_d_322_34)">
<path fill-rule="evenodd" clip-rule="evenodd" d="M129.585 77.5804C129.921 78.0239 130.581 78.0239 130.918 77.5804L139.852 65.7424C140.653 64.7151 142.092 64.5251 143.106 65.3079C144.12 66.1179 135.124 79.739 130.918 85.3141C130.581 85.7576 129.921 85.7576 129.585 85.3141C125.357 79.739 116.356 66.1179 117.37 65.3034C118.384 64.5205 119.849 64.706 120.624 65.7378L129.585 77.5759V77.5804Z" fill="white"/>
</g>
</g>
<defs>
<filter id="filter0_d_322_34" x="-4" y="0" width="268" height="158" filterUnits="userSpaceOnUse" color-interpolation-filters="sRGB">
<feFlood flood-opacity="0" result="BackgroundImageFix"/>
<feColorMatrix in="SourceAlpha" type="matrix" values="0 0 0 0 0 0 0 0 0 0 0 0 0 0 0 0 0 0 127 0" result="hardAlpha"/>
<feOffset dy="4"/>
<feGaussianBlur stdDeviation="2"/>
<feComposite in2="hardAlpha" operator="out"/>
<feColorMatrix type="matrix" values="0 0 0 0 0 0 0 0 0 0 0 0 0 0 0 0 0 0 0.25 0"/>
<feBlend mode="normal" in2="BackgroundImageFix" result="effect1_dropShadow_322_34"/>
<feBlend mode="normal" in="SourceGraphic" in2="effect1_dropShadow_322_34" result="shape"/>
</filter>
<filter id="filter1_d_322_34" x="105.951" y="59.1503" width="48.5745" height="43.5081" filterUnits="userSpaceOnUse" color-interpolation-filters="sRGB">
<feFlood flood-opacity="0" result="BackgroundImageFix"/>
<feColorMatrix in="SourceAlpha" type="matrix" values="0 0 0 0 0 0 0 0 0 0 0 0 0 0 0 0 0 0 127 0" result="hardAlpha"/>
<feOffset dy="5.67"/>
<feGaussianBlur stdDeviation="5.67"/>
<feColorMatrix type="matrix" values="0 0 0 0 0.533333 0 0 0 0 0.533333 0 0 0 0 0.533333 0 0 0 0.4 0"/>
<feBlend mode="normal" in2="BackgroundImageFix" result="effect1_dropShadow_322_34"/>
<feBlend mode="normal" in="SourceGraphic" in2="effect1_dropShadow_322_34" result="shape"/>
</filter>
<linearGradient id="paint0_linear_322_34" x1="101.472" y1="75.2348" x2="159" y2="75.2348" gradientUnits="userSpaceOnUse">
<stop stop-color="#676867"/>
<stop offset="1" stop-color="#898A89"/>
</linearGradient>
<clipPath id="clip0_322_34">
<rect width="260" height="150" fill="white"/>
</clipPath>
<clipPath id="clip1_322_34">
<rect width="58" height="58" fill="white" transform="translate(101 46)"/>
</clipPath>
</defs>
</svg>
